<svg xmlns="http://www.w3.org/2000/svg" width="196" height="196" viewBox="0 0 135.467 135.467"><path fill="#8b5cf6" d="M77.193 133.787c-10.784-.464-23.344-3.844-35.095-9.446-3.114-1.484-4.197-2.065-8.491-4.548l-1.494-.864.188-.967c.104-.532.471-3.049.817-5.594.791-5.821.886-12.49.221-15.461-1.463-6.535-2.988-9.941-9.905-22.119-1.004-1.768-3.314-6.598-4.048-8.464-.845-2.147-2.317-8.026-2.807-11.21-.51-3.31-.515-9.701-.011-13.223.474-3.315 1.666-8.16 2.735-11.116 1.499-4.147 4.63-9.598 7.454-12.978 3.942-4.719 8.67-8.435 14.213-11.172 6.646-3.282 12.995-4.781 21.216-5.011 9.245-.258 16.633 1.298 24.262 5.112 4.504 2.251 7.916 4.788 11.749 8.733 5.465 5.626 7.98 10.612 10.916 21.636 2.169 8.146 2.383 10.715 1.17 14.029-1.088 2.974-1.137 4.585-.197 6.566.419.883 2.589 4.658 3.635 6.323 5.203 8.282 5.546 8.947 5.554 10.775.005.956-.125 1.574-.44 2.103-.556.931-2.302 1.949-4.517 2.632-2.196.677-2.672 1.01-2.997 2.096-.312 1.041-.113 2.404.646 4.432.859 2.295.335 3.964-1.542 4.915l-1.192.604.651.75c.863.993 1.169 1.608 1.169 2.345 0 .776-.752 1.994-1.835 2.973-1.234 1.115-1.456 2.398-.972 5.612.635 4.218.118 6.718-1.837 8.882-2.489 2.755-5.545 3.619-12.815 3.623-4.741.003-6.846.54-8.782 2.239-2.165 1.901-3.777 7.965-3.777 14.213 0 .867-.076 1.61-.169 1.652s-1.745.009-3.67-.074zm-15.967-52.41c.368-.461.391-1.546.339-16.294-.056-15.726-.058-15.804-.545-16.714-.82-1.532-2.212-2.697-5.426-4.543l-3.995-2.301-2.39-1.378-3.498-2.032-3.047-1.76c-.559-.313-2.082-1.202-3.386-1.975-4.78-2.835-5.26-2.992-6.217-2.035l-.554.554v15.782c0 13.707.046 15.892.348 16.615.603 1.443 2.072 2.769 4.934 4.453l21.125 12.069c.974.365 1.794.208 2.313-.442zm-7.322-6.645c-1.326-1.233-2.197-2.967-2.38-4.737-.103-.995-.037-1.305.414-1.964.681-.994 1.328-1.153 2.526-.623 1.923.85 3.335 3.104 3.493 5.574.088 1.373.037 1.661-.391 2.201-.405.511-.67.621-1.501.621-.891 0-1.143-.125-2.162-1.072zm-15.105-8.601c-1.147-.728-2.341-2.376-2.708-3.74-.347-1.289-.158-3.389.357-3.957.631-.698 1.88-.608 3.018.217 2.603 1.886 3.837 6.194 2.182 7.618-.791.68-1.623.64-2.849-.137zm16.451-10.255c-2.741-1.209-4.643-5.836-3.191-7.76.409-.542.635-.635 1.52-.623 1.442.019 2.496.911 3.607 3.053.807 1.555.862 1.782.781 3.223-.072 1.29-.175 1.622-.611 1.975-.598.484-1.219.523-2.106.132zm-16.086-9.386c-.958-.598-2.023-1.786-2.591-2.889-.528-1.025-.83-3.065-.593-4.007.339-1.351 1.683-1.86 3.049-1.154 1.324.684 2.963 3.171 3.318 5.034.478 2.505-1.302 4.192-3.183 3.017zm28.778 35.334c.31-.164 2.646-1.498 5.191-2.966l5.643-3.233c.559-.311 1.258-.753 1.554-.983s.628-.417.738-.417.629-.272 1.155-.604c.865-.547 4.531-2.672 8.247-4.781 1.745-.99 2.96-2.42 3.357-3.95.231-.892.297-4.507.297-16.353 0-14.045-.03-15.258-.393-15.872-.733-1.241-1.797-1.101-4.556.6-.902.556-1.672 1.011-1.711 1.011s-1.223.694-2.631 1.542l-6.283 3.699C66.233 46.647 66.5 46.463 65.53 48.44l-.636 1.295-.065 15.165c-.056 13.051-.018 15.277.272 15.972.483 1.155 1.689 1.559 2.84.951zm1.111-6.602c-.837-.891-.762-2.911.177-4.722 2.024-3.903 5.403-4.516 5.866-1.063.128.952-.605 3.082-1.515 4.402-1.338 1.942-3.409 2.574-4.528 1.382zm15.559-8.878c-.46-.373-.532-.628-.527-1.862.009-2.201 1.509-4.828 3.416-5.982 1.091-.66 1.698-.663 2.456-.011 2.202 1.894-.874 8.287-3.987 8.287-.477 0-1.05-.182-1.358-.432zm-7.349-5.324c-1.618-1.133-1.036-4.498 1.189-6.876 1.313-1.404 2.4-1.809 3.428-1.277 1.808.935 1.435 4.317-.758 6.879-1.322 1.545-2.783 2.027-3.859 1.274zm-8.124-5.397c-.571-.491-.633-.685-.629-1.975.005-1.822.677-3.261 2.268-4.856 1.689-1.694 3.334-1.905 4.051-.519.552 1.068.422 2.634-.356 4.284-1.473 3.125-3.746 4.432-5.333 3.067zm15.897-8.991c-.914-.694-1.075-2.456-.401-4.374.771-2.193 2.414-3.863 4.007-4.075.716-.095.946-.016 1.419.491.815.872.796 3.101-.042 4.855-1.26 2.638-3.642 4.122-4.983 3.103zm-19.458-3.456c.892-.303 2.689-1.31 10.038-5.627l10.27-5.958c3.904-2.244 4.962-3.157 4.731-4.087-.268-1.076.868-.371-19.176-11.903l-4.74-2.764c-.124-.092-.726-.334-1.338-.537-2.133-.71-4.024-.378-6.631 1.164l-4.332 2.535-5.981 3.496-10.157 5.902c-2.118 1.201-2.738 2.126-2.155 3.216.118.221 1.312 1.043 2.652 1.826L43 32.933c6.265 3.72 17.642 10.173 18.243 10.347 1.136.329 3.204.279 4.334-.104zm-4.659-13.05a7.54 7.54 0 0 1-1.524-.796c-1.431-1.019-1.522-2.003-.294-3.171 1.627-1.548 5.444-1.849 7.578-.599 1.159.679 1.563 1.275 1.535 2.26-.022.778-.537 1.263-2.191 2.065-1.296.628-3.702.741-5.104.24z"/></svg>